<svg style="opacity:0.2" version="1.1" xmlns="http://www.w3.org/2000/svg" xmlns:xlink="http://www.w3.org/1999/xlink" x="0px" y="0px"
	 width="100%" viewBox="0 0 335.334 306.858">
<path fill="#006934" d="M81.641,205.258c2.819,1.245,6.422,3.868,7.379,4.581c-0.392-1.223-1.963-5.234-6.154-7.027
	c-4.171-1.784-7.136-0.116-7.987,0.471C75.713,203.425,78.828,204.017,81.641,205.258"/>
<path fill="#006934" d="M81.459,205.67c-2.749-1.214-5.792-1.795-6.635-1.94c0.649,0.847,2.833,3.548,5.293,4.941
	c2.505,1.419,7.277,1.53,8.638,1.532C87.816,209.503,84.241,206.9,81.459,205.67"/>
<path fill="#006934" d="M230.031,187.469c0.162,1.045,0.368,2.091,0.625,3c1.053-0.426,2.263-0.808,3.425-1.129
	c0.344-2.102,0.397-3.904,0.397-3.904S232.251,185.856,230.031,187.469"/>
<path fill="#006934" d="M230.383,191.067c0,0-0.138-0.412-0.146-0.421c-0.248-0.871-0.45-1.865-0.613-2.867
	c-0.502,0.4-0.996,0.865-1.456,1.402c0.177,1.468,0.433,3.07,0.796,4.389c1.388-0.619,3.06-1.17,4.531-1.601
	c0.207-0.699,0.372-1.435,0.502-2.149C232.745,190.171,231.453,190.592,230.383,191.067"/>
<path fill="#006934" d="M228.682,194.198c0,0-0.152-0.426-0.132-0.437c-0.345-1.227-0.596-2.702-0.774-4.095
	c-0.369,0.489-0.709,1.03-1.006,1.63c-2.389,4.858,0.223,8.262,0.223,8.262s3.666-2.358,5.484-5.208
	c0.339-0.528,0.62-1.17,0.854-1.862C231.776,192.951,230.041,193.541,228.682,194.198"/>
<path fill="#006934" d="M139.02,182.648c-1.056,0.351-2.109,0.747-3.002,1.175c-0.183,0.485-0.312,0.862-0.386,1.083
	C136.22,184.582,137.625,183.764,139.02,182.648"/>
<path fill="#006934" d="M137.819,179.856c-0.659,1.206-1.188,2.41-1.568,3.363c1.116-0.497,2.421-0.947,3.653-1.324
	c0.508-0.464,0.99-0.964,1.402-1.489c0.374-0.478,0.705-1.065,0.999-1.707C140.812,178.99,139.159,179.376,137.819,179.856"/>
<path fill="#006934" d="M139.734,176.953c-0.441,0.567-0.853,1.137-1.197,1.681c-0.132,0.209-0.261,0.42-0.385,0.633
	c1.359-0.443,2.952-0.799,4.369-1.065c0.274-0.671,0.51-1.381,0.71-2.075C142.03,176.343,140.792,176.616,139.734,176.953"/>
<path fill="#006934" d="M143.784,171.775c-0.737,0.12-2.463,0.493-4.251,1.546c0.057,0.963,0.147,1.929,0.291,2.797
	C141.392,174.183,143.176,172.379,143.784,171.775"/>
<path fill="#006934" d="M134.876,179.069c0.274,1.265,0.62,2.629,1.028,3.809c0.397-0.983,0.941-2.201,1.614-3.409l-0.058,0.012
	c-0.231-1.263-0.339-2.771-0.384-4.189c-0.415,0.451-0.807,0.957-1.157,1.526C135.436,177.6,135.1,178.355,134.876,179.069"/>
<path fill="#006934" d="M135.654,183.511c-0.396-1.046-0.738-2.278-1.021-3.479c-0.446,2.334,0.245,4.1,0.564,4.754
	C135.279,184.54,135.433,184.091,135.654,183.511"/>
<path fill="#006934" d="M137.515,174.844c0.03,1.35,0.117,2.818,0.312,4.089c0.107-0.182,0.217-0.362,0.331-0.541
	c0.362-0.571,0.797-1.172,1.262-1.768l-0.013-0.039c0.021-0.007,0.039-0.013,0.06-0.021c0.004-0.005,0.009-0.011,0.013-0.017
	l-0.035,0.007c-0.17-0.903-0.278-1.933-0.345-2.966C138.562,173.939,138.024,174.354,137.515,174.844"/>
<path fill="#006934" d="M140.226,176.336c0.988-0.277,2.084-0.506,3.14-0.692c0.408-1.526,0.643-2.915,0.739-3.552
	C143.514,172.679,141.77,174.442,140.226,176.336"/>
<path fill="#006934" d="M223.831,196.488c-0.925-0.846-3.217-2.731-6.466-3.99c-1.209,1.075-2.387,2.202-3.382,3.295
	C218.165,195.845,222.402,196.315,223.831,196.488"/>
<path fill="#006934" d="M212.79,196.545c-1.208,0.01-2.388,0.062-3.462,0.174c-0.413,0.043-0.826,0.095-1.236,0.152
	c2,1.33,4.129,3.057,5.957,4.646c1.169-0.335,2.35-0.764,3.474-1.225C215.984,198.935,214.334,197.588,212.79,196.545"/>
<path fill="#006934" d="M213.255,191.423c-1.747,1.448-3.591,3.091-5.063,4.67c0.352-0.047,0.704-0.09,1.058-0.127
	c1.132-0.118,2.374-0.17,3.645-0.178l0.038-0.059c0.029,0.02,0.059,0.038,0.087,0.059h0.037l-0.046-0.041
	c1.013-1.164,2.258-2.38,3.549-3.543C215.538,191.86,214.432,191.585,213.255,191.423"/>
<path fill="#006934" d="M206.967,197.046c-4.128,0.702-7.796,1.966-8.934,2.38c1.653,0.693,7.093,2.809,11.842,2.788
	c1.021-0.005,2.142-0.179,3.29-0.461C211.227,200.086,208.996,198.312,206.967,197.046"/>
<path fill="#006934" d="M207.165,196.247l-0.074-0.065c1.423-1.618,3.298-3.334,5.119-4.869c-1.025-0.077-2.1-0.065-3.216,0.064
	c-7.571,0.878-10.502,5.785-11.255,7.352C198.895,198.306,202.808,196.954,207.165,196.247"/>
<path fill="#006934" d="M214.113,196.55c1.395,1.015,2.838,2.22,4.182,3.417c2.438-1.053,4.513-2.19,5.453-2.728
	C222.357,197.072,218.217,196.611,214.113,196.55"/>
<path fill="#006934" d="M108.766,235.544c-2.359-0.646-4.974-1.256-7.237-1.532c-1.072,0.559-2.099,1.141-3.004,1.729
	c-0.35,0.228-0.692,0.46-1.031,0.698c3.03,0.348,6.537,1.173,9.238,1.896C107.479,237.47,108.16,236.51,108.766,235.544"/>
<path fill="#006934" d="M111.527,228.865c-1.001-0.581-3.742-1.954-7.224-1.899c-0.792,1.923-1.549,3.975-2.056,5.833
	C106.197,230.843,110.412,229.271,111.527,228.865"/>
<path fill="#006934" d="M100.295,227.687c-1.103,2.442-2.324,5.407-3.068,8.016c0.292-0.202,0.586-0.4,0.885-0.595
	c0.954-0.62,2.037-1.231,3.165-1.816l0.008-0.069c0.034,0.003,0.067,0.007,0.103,0.011c0.011-0.005,0.021-0.011,0.032-0.016
	l-0.059-0.016c0.481-1.939,1.271-4.132,2.109-6.194C102.456,227.089,101.391,227.299,100.295,227.687"/>
<path fill="#006934" d="M102.708,233.415c2.097,0.33,4.39,0.885,6.467,1.458c1.321-2.23,2.222-4.37,2.584-5.286
	C110.63,229.999,106.552,231.521,102.708,233.415"/>
<path fill="#006934" d="M91.045,241.908c-0.649,0.646-1.127,1.149-1.387,1.43c1.395,0.01,5.449-0.035,9.25-0.815
	C96.334,242.159,93.453,241.866,91.045,241.908"/>
<path fill="#006934" d="M91.533,240.384c1.296-1.225,2.977-2.703,4.85-4.078l-0.096-0.024c0.656-2.584,1.86-5.614,3-8.189
	c-0.682,0.306-1.37,0.683-2.063,1.145c-1.963,1.308-3.449,2.885-4.576,4.504C92.175,235.894,91.737,238.261,91.533,240.384"/>
<path fill="#006934" d="M96.571,237.108c-1.851,1.381-3.5,2.851-4.746,4.041c2.887,0.03,6.278,0.461,9.014,0.9
	c0.97-0.282,1.886-0.624,2.691-1.041c0.938-0.484,1.817-1.199,2.628-2.042C103.28,238.207,99.594,237.367,96.571,237.108"/>
<path fill="#006934" d="M89.217,242.702c0.311-0.332,0.822-0.865,1.491-1.523c0.116-1.72,0.411-3.649,0.773-5.526
	C89.885,238.649,89.373,241.482,89.217,242.702"/>
<path fill="#006934" d="M127.174,186.972c1.165-0.425,2.395-0.921,3.451-1.452c-0.897-0.208-1.853-0.472-2.783-0.806
	c-0.268-0.096-0.544-0.204-0.823-0.321l0.012,0.039c-0.803,0.26-1.718,0.48-2.648,0.666
	C125.227,185.797,126.165,186.455,127.174,186.972"/>
<path fill="#006934" d="M126.438,184.143c-0.845-0.378-1.714-0.819-2.531-1.261v0.001l-0.001-0.001
	c-0.016-0.009-0.032-0.019-0.049-0.027c-0.448,0.146-0.931,0.281-1.432,0.405c0.454,0.479,0.963,0.978,1.52,1.465
	C124.806,184.561,125.662,184.368,126.438,184.143"/>
<path fill="#006934" d="M120.369,180.805c0.343,0.467,0.928,1.224,1.703,2.077c0.428-0.103,0.844-0.211,1.237-0.328
	C122.042,181.846,120.957,181.176,120.369,180.805"/>
<path fill="#006934" d="M127.369,184.051c0.212,0.086,0.421,0.166,0.626,0.239c0.966,0.347,1.96,0.617,2.886,0.826
	c-0.768-1.256-1.504-2.789-2.103-4.153c-0.905-0.159-1.889-0.279-2.858-0.369C126.347,181.793,126.841,183.029,127.369,184.051"/>
<path fill="#006934" d="M123.593,182.197c-0.247-0.57-0.482-1.184-0.701-1.808c-1.075-0.048-1.957-0.064-2.447-0.069
	C120.978,180.66,122.175,181.408,123.593,182.197"/>
<path fill="#006934" d="M131.497,185.25c1.746,0.358,3.138,0.494,3.429,0.521c-0.146-0.697-0.787-2.813-3.31-4.014
	c-0.595-0.283-1.396-0.511-2.302-0.692C129.945,182.479,130.711,184.035,131.497,185.25"/>
<path fill="#006934" d="M134.965,186L134.965,186L134.965,186z"/>
<path fill="#006934" d="M131.311,185.671c-1.054,0.571-2.334,1.108-3.571,1.572c0.503,0.226,1.021,0.413,1.551,0.554
	c2.563,0.675,4.765-0.991,5.452-1.591C134.25,186.157,132.923,186.007,131.311,185.671"/>
<path fill="#006934" d="M124.249,182.556c0.807,0.434,1.658,0.861,2.483,1.226c-0.477-0.995-0.92-2.133-1.305-3.232
	c-0.712-0.059-1.407-0.104-2.051-0.137C123.647,181.168,123.94,181.903,124.249,182.556"/>
<path fill="#006934" d="M176.026,252.335c-1.733,0.381-3.497,0.698-5.077,0.851c0.025-1.908-0.115-4.035-0.32-6.049
	c3.08-1.821,5.869-3.006,5.869-3.006S177.198,247.876,176.026,252.335"/>
<path fill="#006934" d="M170.182,253.977c0,0,0.729-0.036,0.748-0.029c1.514-0.141,3.194-0.432,4.86-0.788
	c-0.319,1.029-0.744,2.087-1.305,3.135c-2.406,0.62-5.071,1.196-7.356,1.431c0.124-2.548-0.034-5.501-0.26-8.068
	c0.97-0.752,2.021-1.458,3.061-2.097C170.143,249.734,170.271,252.014,170.182,253.977"/>
<path fill="#006934" d="M166.318,258.55c0,0,0.76-0.021,0.763-0.06c2.132-0.208,4.594-0.716,6.883-1.285
	c-0.539,0.876-1.18,1.739-1.939,2.567c-6.146,6.703-13.067,4.691-13.067,4.691s1.456-7.177,4.807-11.762
	c0.623-0.852,1.455-1.684,2.395-2.473C166.383,252.946,166.518,256.023,166.318,258.55"/>
<path fill="#006934" d="M35.912,179.375c0.551-0.505,1.915-1.627,3.849-2.377c0.719,0.642,1.421,1.313,2.013,1.963
	C39.285,178.992,36.763,179.272,35.912,179.375"/>
<path fill="#006934" d="M42.484,179.409c0.719,0.006,1.421,0.037,2.061,0.104c0.246,0.024,0.491,0.056,0.735,0.09
	c-1.19,0.792-2.457,1.82-3.546,2.766c-0.695-0.199-1.398-0.455-2.067-0.729C40.582,180.832,41.565,180.03,42.484,179.409"/>
<path fill="#006934" d="M42.208,176.36c1.04,0.862,2.138,1.84,3.014,2.78c-0.209-0.028-0.419-0.054-0.63-0.076
	c-0.673-0.07-1.413-0.101-2.169-0.105l-0.023-0.034c-0.017,0.011-0.034,0.022-0.051,0.034h-0.022l0.027-0.024
	c-0.603-0.693-1.344-1.416-2.113-2.109C40.848,176.62,41.506,176.457,42.208,176.36"/>
<path fill="#006934" d="M45.95,179.708c2.457,0.418,4.641,1.17,5.318,1.417c-0.984,0.412-4.222,1.671-7.049,1.659
	c-0.608-0.003-1.274-0.107-1.959-0.274C43.415,181.516,44.742,180.46,45.95,179.708"/>
<path fill="#006934" d="M45.833,179.231l0.044-0.039c-0.847-0.963-1.963-1.983-3.047-2.898c0.61-0.046,1.25-0.038,1.914,0.039
	c4.507,0.522,6.252,3.442,6.699,4.376C50.755,180.458,48.426,179.652,45.833,179.231"/>
<path fill="#006934" d="M41.696,179.412c-0.83,0.604-1.689,1.322-2.49,2.034c-1.451-0.627-2.686-1.304-3.245-1.623
	C36.789,179.722,39.253,179.448,41.696,179.412"/>
<path fill="#006934" d="M211.014,263.02c2.358-0.646,4.974-1.256,7.238-1.532c1.071,0.559,2.098,1.141,3.004,1.729
	c0.349,0.228,0.691,0.46,1.03,0.698c-3.029,0.348-6.537,1.173-9.237,1.896C212.301,264.946,211.619,263.986,211.014,263.02"/>
<path fill="#006934" d="M208.252,256.34c1.001-0.581,3.743-1.954,7.224-1.899c0.792,1.923,1.549,3.975,2.057,5.833
	C213.582,258.319,209.368,256.747,208.252,256.34"/>
<path fill="#006934" d="M219.484,255.163c1.104,2.442,2.324,5.406,3.068,8.016c-0.292-0.202-0.586-0.4-0.884-0.595
	c-0.954-0.62-2.037-1.231-3.165-1.816l-0.009-0.07c-0.033,0.004-0.067,0.008-0.103,0.012c-0.01-0.005-0.021-0.011-0.032-0.016
	l0.06-0.016c-0.482-1.939-1.271-4.132-2.11-6.194C217.323,254.565,218.389,254.775,219.484,255.163"/>
<path fill="#006934" d="M217.071,260.89c-2.097,0.331-4.39,0.885-6.467,1.458c-1.321-2.23-2.222-4.37-2.584-5.286
	C209.149,257.474,213.228,258.997,217.071,260.89"/>
<path fill="#006934" d="M228.734,269.383c0.65,0.646,1.127,1.149,1.387,1.43c-1.395,0.01-5.448-0.035-9.25-0.815
	C223.445,269.634,226.326,269.341,228.734,269.383"/>
<path fill="#006934" d="M228.247,267.86c-1.296-1.225-2.978-2.703-4.851-4.078l0.097-0.024c-0.657-2.584-1.861-5.614-3-8.189
	c0.681,0.306,1.37,0.683,2.062,1.145c1.962,1.308,3.449,2.885,4.576,4.504C227.604,263.37,228.042,265.737,228.247,267.86"/>
<path fill="#006934" d="M223.208,264.583c1.851,1.381,3.5,2.851,4.746,4.041c-2.887,0.03-6.277,0.461-9.014,0.9
	c-0.969-0.282-1.885-0.624-2.691-1.041c-0.938-0.484-1.816-1.199-2.628-2.042C216.499,265.682,220.186,264.842,223.208,264.583"/>
<path fill="#006934" d="M230.563,270.177c-0.311-0.332-0.821-0.865-1.49-1.523c-0.117-1.72-0.412-3.649-0.774-5.526
	C229.895,266.125,230.407,268.958,230.563,270.177"/>
<path fill="#006934" d="M44.834,250.06c-0.954-0.62-2.036-1.232-3.165-1.817l-0.007-0.069c-0.034,0.004-0.069,0.009-0.103,0.012
	c-0.011-0.005-0.022-0.012-0.033-0.017l0.059-0.015c-0.421-1.694-1.077-3.582-1.795-5.408c1.135,0.332,2.354,0.866,3.642,1.673
	c0.864,2.024,1.715,4.234,2.286,6.235C45.428,250.452,45.133,250.253,44.834,250.06"/>
<path fill="#006934" d="M41.418,248.964c1.072,0.559,2.098,1.141,3.004,1.729c0.348,0.228,0.692,0.46,1.031,0.698
	c-2.803,0.322-6.012,1.051-8.616,1.73c-1.004-0.749-1.866-1.674-2.595-2.644C36.585,249.84,39.173,249.239,41.418,248.964"/>
<path fill="#006934" d="M31.38,243.803c0.954-0.629,3.681-2.086,7.507-1.284c0.701,1.744,1.357,3.566,1.811,5.231
	C36.703,245.772,32.437,244.187,31.38,243.803"/>
<path fill="#006934" d="M46.375,252.06c3.272,2.441,5.913,5.16,6.807,6.116c-2.323-0.41-10.709-1.994-15.028-4.227
	c-0.161-0.083-0.319-0.171-0.474-0.264C40.401,252.995,43.656,252.292,46.375,252.06"/>
<path fill="#006934" d="M40.238,248.366c-2.096,0.331-4.387,0.885-6.464,1.457c-1.463-2.145-2.304-4.366-2.62-5.297
	C32.234,244.919,36.355,246.454,40.238,248.366"/>
<path fill="#006934" d="M46.563,251.258l0.096-0.024c-0.481-1.893-1.256-4.024-2.083-6.042c5.623,4.08,8.155,10.035,8.937,12.233
	C52.405,256.259,49.762,253.607,46.563,251.258"/>
<path fill="#006934" d="M318.142,196.547c0.174-8.887,0.476-17.78,0.477-26.671c0-1.109-1.725-1.108-1.725,0
	c0,10.049-0.347,20.105-0.544,30.152c-0.189,9.722-0.383,19.443-0.618,29.165c-0.229,9.519-0.631,19.038-0.702,28.559
	c-0.032,4.441,0,8.891-0.254,13.325c-0.254,4.467-0.713,8.936-1.165,13.387c-0.403,3.974-0.842,7.942-1.242,11.914
	c-0.353,3.492-0.641,7.022-1.306,10.473c0,0.003,0.001,0.005,0.001,0.008h1.736c0.686-3.73,0.997-7.54,1.375-11.308
	c0.46-4.592,0.986-9.176,1.422-13.77c0.421-4.438,0.874-8.888,1.018-13.345c0.146-4.559,0.111-9.12,0.168-13.681
	c0.114-9.55,0.524-19.1,0.747-28.647C317.758,216.255,317.949,206.402,318.142,196.547"/>
<path fill="#006934" d="M301.747,236.191L301.747,236.191L301.747,236.191c-0.021,0.025-0.042,0.049-0.062,0.073
	c-1.159,0.069-2.419,0.222-3.7,0.426c0.266-0.981,0.625-2.026,1.11-3.087c1.941-0.411,3.988-0.769,5.833-0.938
	C303.839,233.774,302.752,234.998,301.747,236.191"/>
<path fill="#006934" d="M297.244,241.958c0.006-0.852,0.088-2.49,0.542-4.47c1.105-0.182,2.199-0.328,3.229-0.416
	C299.255,239.217,297.835,241.141,297.244,241.958"/>
<path fill="#006934" d="M306.441,232.236c0.279-0.265,0.557-0.519,0.831-0.76c1.297-1.136,2.686-2.17,4.005-3.066
	c-0.417,2.372-0.626,5.135-0.727,7.588c-1.127,1.082-2.637,2.065-4.234,2.925C306.229,236.667,306.232,234.276,306.441,232.236"/>
<path fill="#006934" d="M306.773,230.907c-0.359,0.316-0.725,0.654-1.092,1.009l-0.005-0.069c-1.9,0.12-4.075,0.472-6.163,0.898
	c0.886-1.703,2.115-3.41,3.817-4.926c2.354-0.086,4.995-0.093,7.298,0.117C309.354,228.813,308.021,229.814,306.773,230.907"/>
<path fill="#006934" d="M316.936,225.034c-0.589,1.609-2.578,6.646-5.589,10.117c0.124-2.45,0.363-5.114,0.811-7.328
	C314.333,226.406,316.191,225.416,316.936,225.034"/>
<path fill="#006934" d="M311.607,227.279c-2.234-0.272-4.887-0.309-7.33-0.246c5.537-4.294,10.753-3.183,12.346-2.689
	C315.869,224.73,313.9,225.776,311.607,227.279"/>
<path fill="#006934" d="M317.118,224.518L317.118,224.518L317.118,224.518z"/>
<path fill="#006934" d="M301.678,237.457c-0.039,1.145-0.024,2.36,0.027,3.58c-1.669,0.661-3.092,1.131-3.853,1.37
	C298.442,241.591,299.89,239.629,301.678,237.457"/>
<path fill="#006934" d="M302.483,236.491c0.994-1.173,2.063-2.367,3.128-3.441c-0.143,1.976-0.125,4.187-0.037,6.26
	c-1.05,0.533-2.119,1.011-3.125,1.426C302.395,239.266,302.395,237.808,302.483,236.491"/>
<path fill="#006934" d="M307.715,178.692c1.13,1.75,2.272,3.661,3.149,5.443c-1.413-0.631-2.961-1.245-4.545-1.741
	c-0.457-0.144-0.935-0.278-1.429-0.407l0.057-0.039c-0.813-1.161-1.815-2.384-2.873-3.577
	C303.913,178.291,305.839,178.363,307.715,178.692"/>
<path fill="#006934" d="M303.859,181.735c-1.516-0.352-3.125-0.642-4.668-0.878l-0.001-0.001c0,0-0.001,0-0.001,0.001
	c-0.031-0.005-0.063-0.01-0.094-0.015c-0.452-0.649-0.962-1.32-1.508-1.994c1.094-0.181,2.282-0.333,3.522-0.422
	C302.097,179.519,303.049,180.647,303.859,181.735"/>
<path fill="#006934" d="M292.347,180.053c0.931-0.278,2.482-0.699,4.387-1.055c0.471,0.568,0.915,1.137,1.324,1.693
	C295.643,180.354,293.51,180.151,292.347,180.053"/>
<path fill="#006934" d="M305.013,182.802c0.371,0.1,0.733,0.205,1.081,0.314c1.646,0.515,3.252,1.16,4.705,1.818
	c-2.303,0.904-4.843,2.211-7.029,3.432c-1.374-0.704-2.812-1.54-4.203-2.402C301.355,184.789,303.269,183.635,305.013,182.802"/>
<path fill="#006934" d="M298.074,181.458c-0.908,0.513-1.845,1.096-2.771,1.709c-1.489-1.025-2.686-1.897-3.347-2.387
	C293.014,180.865,295.376,181.076,298.074,181.458"/>
<path fill="#006934" d="M311.758,185.381c2.702,1.29,4.705,2.52,5.121,2.779c-0.901,0.785-3.906,2.97-8.504,2.02
	c-1.082-0.223-2.385-0.731-3.783-1.404C306.87,187.52,309.473,186.211,311.758,185.381"/>
<path fill="#006934" d="M311.936,184.628c-0.833-1.833-2.002-3.852-3.189-5.727c0.902,0.208,1.787,0.479,2.639,0.831
	c4.118,1.694,5.376,6.158,5.689,7.659C316.367,186.958,314.436,185.813,311.936,184.628"/>
<path fill="#006934" d="M299.318,181.642c1.52,0.237,3.096,0.525,4.568,0.875c-1.646,0.849-3.396,1.926-5.024,3.006
	c-1.014-0.642-1.991-1.287-2.885-1.896C297.105,182.89,298.242,182.203,299.318,181.642"/>
<path fill="#C30D23" d="M313.174,154.505l2.272,9.122c0,0,1.802-0.045,3.081-1.063s1.601-1.979,1.601-1.979L313.174,154.505z"/>
<path fill="#C30D23" d="M312.503,154.39c0.089,0.021,2.161,9.19,2.161,9.19s-5.804-0.855-5.791-4.815
	C308.879,156.507,312.503,154.39,312.503,154.39"/>
<path fill="#C30D23" d="M312.215,163.333c0,0,4.6,2.618,7.287-0.301c2.922-3.175,2.556-11.185,2.556-11.185s5.874,6.061,3.501,9.507
	C318.804,171.164,312.215,163.333,312.215,163.333"/>
<path fill="#C30D23" d="M320.405,159.552l-7.684-6.406c0,0,6.965-3.236,8.239-1.495
	C322.234,153.393,320.405,159.552,320.405,159.552"/>
<path fill="#C30D23" d="M312.356,164.923c0,0-6.53-3.292-8.236-8.035c-0.047-0.2,3.731-9.775,9.44-10.78s9.988,4.819,9.988,4.819
	s-4.916-1.951-10.449,1.109C302.354,157.978,312.356,164.923,312.356,164.923"/>
<path fill="#C30D23" d="M303.752,157.649c-0.089-0.021,1.581,3.677,6.027,6.806c4.446,3.128,10.258,2.289,10.258,2.289
	s-6.854,5.476-10.351,2.876C304.475,165.744,303.752,157.649,303.752,157.649"/>
<path fill="#C30D23" d="M326.734,160.171c-0.726,5.251-12.251,10.302-12.251,10.302s8.835-0.264,13.343-3.96
	c4.507-3.695,3.466-6.866,2.413-9.19s-7.114-5.6-7.114-5.6S327.356,155.671,326.734,160.171"/>
<path fill="#C30D23" d="M314.853,145.235c6.764,0.615,7.082,2.951,9.845,5.823c2.762,2.871,5.972,3.254,7.049,8.461
	c0.042,0.201,0.248-7.015-3.318-11.067C324.859,144.399,314.529,145.205,314.853,145.235"/>
<path fill="#006934" d="M20.313,212.553c0.568-0.369,1.212-0.734,1.884-1.082l0.004-0.041c0.021,0.002,0.041,0.005,0.062,0.007
	c0.006-0.003,0.013-0.007,0.019-0.01l-0.035-0.01c0.251-1.008,0.641-2.132,1.068-3.219c-0.675,0.198-1.401,0.516-2.168,0.996
	c-0.514,1.205-1.021,2.521-1.36,3.712C19.96,212.787,20.137,212.667,20.313,212.553"/>
<path fill="#006934" d="M22.347,211.901c-0.638,0.333-1.249,0.679-1.788,1.029c-0.207,0.135-0.412,0.274-0.614,0.416
	c1.668,0.191,3.579,0.625,5.129,1.03c0.597-0.446,1.11-0.997,1.545-1.574C25.224,212.421,23.683,212.063,22.347,211.901"/>
<path fill="#006934" d="M28.322,208.829c-0.568-0.374-2.191-1.242-4.469-0.765c-0.417,1.038-0.807,2.122-1.078,3.114
	C25.153,210,27.693,209.056,28.322,208.829"/>
<path fill="#006934" d="M19.396,213.744c-1.948,1.453-3.52,3.071-4.052,3.64c1.383-0.244,6.375-1.186,8.945-2.515
	c0.096-0.049,0.19-0.103,0.283-0.157C22.953,214.3,21.016,213.881,19.396,213.744"/>
<path fill="#006934" d="M23.05,211.544c1.248,0.197,2.612,0.526,3.848,0.867c0.87-1.277,1.371-2.598,1.56-3.153
	C27.814,209.493,25.361,210.407,23.05,211.544"/>
<path fill="#006934" d="M19.285,213.266l-0.057-0.015c0.286-1.127,0.747-2.396,1.24-3.597c-3.347,2.429-4.855,5.975-5.32,7.282
	C15.808,216.243,17.381,214.664,19.285,213.266"/>
<path fill="#006934" d="M280.277,278.498c0.207-4.779,0.292-9.571,0.071-14.353c-0.212-4.562-0.833-9.091-1.311-13.629
	c-1.072-10.18-1.938-20.378-2.438-30.603c-0.497-10.197-1.329-20.39-1.456-30.603c-0.131-10.629-0.313-21.244-1.059-31.853
	c-0.078-1.102-1.802-1.105-1.725,0c0.407,5.787,0.672,11.583,0.837,17.383c0.171,6.029,0.132,12.063,0.296,18.092
	c0.139,5.061,0.438,10.114,0.744,15.166c0.313,5.167,0.54,10.337,0.835,15.504c0.573,10.096,1.502,20.165,2.595,30.216
	c0.482,4.44,0.964,8.847,1.056,13.317c0.101,4.864-0.061,9.733-0.329,14.592c-0.232,4.221-0.484,8.452-0.825,12.666
	c-0.339,4.198-1.008,8.344-1.87,12.464h1.749C279.348,297.528,279.867,287.996,280.277,278.498"/>
<path fill="#006934" d="M267.031,225.49c-4.406-2.716-11.468-5.207-13.366-5.853c2.066-0.622,9.115-2.267,15.587,1.827
	c6.441,4.074,6.955,9.767,6.952,11.505C275.212,231.95,271.429,228.2,267.031,225.49"/>
<path fill="#006934" d="M266.635,226.134c4.297,2.648,7.998,6.308,9.003,7.337c-1.79-0.093-7.609-0.545-11.88-2.623
	c-4.349-2.116-9.045-8.615-10.344-10.497C255.276,220.985,262.285,223.454,266.635,226.134"/>
<path fill="#006934" d="M268.712,223.132c1.836,0.344,3.681,0.768,5.263,1.277c0.413,0.767,0.714,1.364,0.886,1.716
	C273.809,225.718,271.286,224.675,268.712,223.132"/>
<path fill="#006934" d="M270.08,218.212c1.37,1.859,2.521,3.744,3.369,5.244c-1.971-0.575-4.243-1.03-6.379-1.38
	c-0.951-0.657-1.866-1.379-2.67-2.162c-0.732-0.711-1.417-1.614-2.05-2.615C264.904,217.446,267.741,217.715,270.08,218.212"/>
<path fill="#006934" d="M266.235,213.811c0.863,0.846,1.677,1.701,2.372,2.527c0.269,0.318,0.529,0.642,0.784,0.968
	c-2.363-0.432-5.094-0.664-7.514-0.789c-0.608-1.053-1.161-2.182-1.65-3.293C262.276,213.315,264.399,213.491,266.235,213.811"/>
<path fill="#006934" d="M258.326,206.107c1.253,0.033,4.212,0.265,7.426,1.614c0.123,1.613,0.188,3.242,0.146,4.719
	C262.851,209.576,259.475,206.974,258.326,206.107"/>
<path fill="#006934" d="M274.802,216.238c-0.172,2.168-0.438,4.516-0.852,6.572c-0.884-1.548-2.064-3.451-3.457-5.311l0.099,0.005
	c0.099-2.153-0.061-4.689-0.306-7.059c0.791,0.655,1.556,1.409,2.27,2.278C273.538,213.918,274.267,215.099,274.802,216.238"/>
<path fill="#006934" d="M274.509,223.81c0.423-1.831,0.715-3.96,0.916-6.024c1.271,3.784,0.517,6.881,0.131,8.041
	C275.366,225.437,275.009,224.726,274.509,223.81"/>
<path fill="#006934" d="M269.456,209.8c0.253,2.255,0.44,4.719,0.403,6.877c-0.22-0.277-0.443-0.554-0.673-0.825
	c-0.732-0.87-1.591-1.771-2.501-2.658l0.014-0.068c-0.034-0.006-0.068-0.012-0.103-0.019c-0.009-0.009-0.018-0.018-0.027-0.025
	l0.062,0.003c0.079-1.542,0.026-3.281-0.096-5.015C267.509,208.531,268.496,209.101,269.456,209.8"/>
<path fill="#006934" d="M265.28,212.896c-1.709-0.237-3.584-0.371-5.384-0.442c-1.023-2.449-1.728-4.709-2.032-5.747
	C258.981,207.55,262.283,210.092,265.28,212.896"/>
<path fill="#C30D23" d="M262.928,137.496l10.548-7.37c0,0,1.819,1.667,2.225,3.867c0.404,2.2-0.128,3.482-0.128,3.482
	L262.928,137.496z"/>
<path fill="#C30D23" d="M262.132,137.01c0.111,0.059,10.495-7.54,10.495-7.54s-6.758-4.336-10.308-0.239
	C260.296,131.566,262.132,137.01,262.132,137.01"/>
<path fill="#C30D23" d="M269.876,127.523c0,0,7.103,1.436,7.249,6.864c0.16,5.904-7.421,13.84-7.421,13.84
	s11.512-0.972,12.162-6.662C283.718,125.368,269.876,127.523,269.876,127.523"/>
<path fill="#C30D23" d="M274.929,138.791l-13.689-0.3c0,0,4.277,9.603,7.157,8.952C271.277,146.792,274.929,138.791,274.929,138.791
	"/>
<path fill="#C30D23" d="M271.452,126.01c0,0-9.698-2.475-15.725,0.886c-0.228,0.164-4.94,13.441,0.048,19.613
	c4.987,6.171,14.641,4.009,14.641,4.009s-6.828-2.408-9.786-10.541C254.885,124.181,271.452,126.01,271.452,126.01"/>
<path fill="#C30D23" d="M256.032,125.778c-0.111-0.059,4.938-2.371,12.339-1.601s12.644,6.862,12.644,6.862
	s-2.148-11.815-8.093-12.276C264.057,118.075,256.032,125.778,256.032,125.778"/>
<path fill="#C30D23" d="M282.017,143.844c3.974-6.072-3.377-21.648-3.377-21.648s8.879,8.218,10.206,16.084
	c1.328,7.867-2.597,10.203-5.774,11.655c-3.177,1.452-12.378-0.619-12.378-0.619S278.611,149.047,282.017,143.844"/>
<path fill="#C30D23" d="M256.323,148.571c7.532,5.447,9.963,3.323,15.395,2.844c5.433-0.478,9.091,2.013,14.885-2.392
	c0.224-0.17-6.054,7.463-13.379,8.437S255.963,148.311,256.323,148.571"/>
<path fill="#006934" d="M231.996,306.858c0.579-1.792,0.992-3.634,0.973-5.526c-0.017-1.702-0.304-3.393-0.4-5.091
	c-0.145-2.506-0.06-5.03-0.06-7.538v-7.871c0-9.314,0.122-18.634-0.324-27.939c-0.448-9.329-1.313-18.633-2.26-27.923
	c-0.941-9.254-1.979-18.481-2.436-27.775c-0.231-4.713-0.415-9.429-0.748-14.136c-0.302-4.262-1.146-8.735,0.049-12.929
	c0.305-1.071-1.357-1.523-1.662-0.458c-1.346,4.722-0.344,9.782-0.028,14.582c0.343,5.217,0.521,10.442,0.807,15.663
	c0.507,9.275,1.645,18.502,2.567,27.743c0.927,9.293,1.739,18.602,2.104,27.936c0.365,9.316,0.208,18.652,0.208,27.973
	c-0.001,4.501-0.241,9.078,0.12,13.566c0.116,1.431,0.335,2.859,0.34,4.296c0.006,1.752-0.405,3.431-0.947,5.088
	c-0.04,0.123-0.048,0.235-0.039,0.34H231.996z"/>
<path fill="#006934" d="M206.332,306.858c1.624-4.434,1.71-9.309,1.511-13.975c-0.214-5.027-0.632-10.019-0.682-15.053
	c-0.208-20.868-3.157-41.57-6.06-62.197c-2.93-20.822-5.807-41.728-5.821-62.796c0-1.111-1.725-1.109-1.724,0
	c0.01,11.777,0.902,23.533,2.213,35.231c2.314,20.644,5.891,41.127,7.988,61.797c0.522,5.136,0.951,10.279,1.247,15.433
	c0.299,5.206,0.373,10.405,0.451,15.617c0.065,4.38,0.576,8.739,0.706,13.118c0.128,4.322-0.054,8.757-1.653,12.824H206.332z"/>
<path fill="#006934" d="M166.324,306.858c-0.018-3.337-0.171-6.679-0.791-9.964c-0.487-2.577-1.203-5.104-1.707-7.679
	c-1.523-7.791-2.109-15.828-2.668-23.736c-0.595-8.4-0.907-16.819-1.06-25.239c-0.304-16.724,0.02-33.449,0.021-50.175
	c0-1.11-1.723-1.108-1.723,0c-0.001,9.415-0.104,18.829-0.14,28.244c-0.063,16.736,0.081,33.494,1.402,50.188
	c0.599,7.567,1.207,15.263,2.818,22.694c0.477,2.203,1.079,4.38,1.473,6.601c0.529,2.989,0.635,6.037,0.65,9.066H166.324z"/>
<path fill="#006934" d="M135.644,211.304c0.101-20.868,0.175-41.736,0.175-62.604c0-1.11-1.723-1.108-1.723,0
	c0,11.961-0.023,23.925-0.063,35.886c-0.067,19.979-0.182,39.958-0.279,59.937c-0.101,20.779-0.174,41.557-0.175,62.335h1.725
	c0-11.876,0.022-23.751,0.062-35.627C135.432,251.255,135.546,231.28,135.644,211.304"/>
<path fill="#006934" d="M89.8,285.066c0-11.887,0.047-23.773,0.06-35.66c0.013-12.333-0.037-24.668-0.33-36.998
	c-0.291-12.238-0.969-24.458-1.611-36.681c-0.645-12.274-1.218-24.557-1.221-36.851c-0.001-1.111-1.724-1.109-1.724,0
	c0.001,1.541,0.009,3.082,0.026,4.622c0.134,12.229,0.78,24.445,1.43,36.655c0.654,12.296,1.242,24.588,1.476,36.9
	c0.235,12.332,0.249,24.667,0.223,37c-0.024,11.185-0.052,22.37-0.052,33.555v18.622c0,0.281,0.111,0.49,0.275,0.628h1.171
	c0.165-0.138,0.277-0.347,0.277-0.628v-4.095V285.066z"/>
<path fill="#006934" d="M54.123,166.281c0.111-1.104-1.613-1.093-1.723,0c-1.056,10.464-1.493,20.978-1.544,31.492
	c-0.087,18.02,0.936,36.018,1.291,54.028c0.362,18.394-0.068,36.836-2.795,55.058h1.723c1.496-10.128,2.345-20.337,2.696-30.567
	c0.622-18.15-0.254-36.298-0.808-54.438C52.398,203.321,52.26,184.75,54.123,166.281"/>
<path fill="#006934" d="M18.609,306.858c-0.188-5.717-0.452-11.432-0.613-17.148c-0.466-16.526-0.089-33.063-0.531-49.589
	c-0.22-8.235-0.826-16.437-1.403-24.652c-0.281-4.004-0.629-8.035-0.662-12.051c-0.028-3.497,0.459-7.077-0.605-10.479
	c-0.331-1.056-1.994-0.602-1.662,0.459c0.612,1.955,0.665,3.988,0.627,6.022c-0.039,2.076-0.1,4.135-0.008,6.212
	c0.202,4.527,0.527,9.047,0.854,13.566c0.589,8.114,1.051,16.22,1.216,24.354c0.167,8.179,0.161,16.36,0.184,24.541
	c0.023,8.235,0.076,16.471,0.364,24.702c0.164,4.688,0.361,9.375,0.516,14.063H18.609z"/>
<path fill="#C30D23" d="M56.39,145.077l3.909,12.259c0,0-2.132,1.244-4.353,0.978s-3.287-1.155-3.287-1.155L56.39,145.077z"/>
<path fill="#C30D23" d="M57.09,144.46c-0.089,0.089,4.086,12.259,4.086,12.259s6.146-5.167,3.287-9.772
	C62.833,144.322,57.09,144.46,57.09,144.46"/>
<path fill="#C30D23" d="M63.852,154.67c0,0-3.478,6.356-8.706,4.887c-5.685-1.6-11.015-11.193-11.015-11.193
	s-2.487,11.282,2.754,13.591C61.803,168.529,63.852,154.67,63.852,154.67"/>
<path fill="#C30D23" d="M51.593,156.153l4.349-12.985c0,0-10.44,1.236-10.673,4.18C45.036,150.291,51.593,156.153,51.593,156.153"/>
<path fill="#C30D23" d="M64.829,156.625c0,0,5.241-8.528,3.82-15.279c-0.089-0.267-11.371-8.706-18.744-5.774
	c-7.373,2.931-8.173,12.792-8.173,12.792s4.326-5.807,12.97-6.219C71.491,141.346,64.829,156.625,64.829,156.625"/>
<path fill="#C30D23" d="M69.626,141.968c0.089-0.089,0.8,5.419-2.132,12.259c-2.931,6.84-10.305,10.037-10.305,10.037
	s11.921,1.454,14.125-4.086C74.601,151.917,69.626,141.968,69.626,141.968"/>
<path fill="#C30D23" d="M44.664,161.422c4.619,5.597,21.675,3.197,21.675,3.197s-10.482,6.041-18.388,4.976
	c-7.906-1.066-8.972-5.509-9.417-8.973c-0.444-3.465,4.264-11.638,4.264-11.638S40.706,156.625,44.664,161.422"/>
<path fill="#C30D23" d="M47.773,135.483c-7.437,5.578-6.13,8.528-7.284,13.858c-1.155,5.33-4.62,8.083-2.132,14.924
	c0.096,0.264-5.33-7.995-4.087-15.279C35.515,141.701,48.128,135.216,47.773,135.483"/>
<path fill="#C30D23" d="M130.996,123.868l11.692,5.371c0,0-0.518,2.414-2.211,3.875c-1.693,1.462-3.068,1.651-3.068,1.651
	L130.996,123.868z"/>
<path fill="#C30D23" d="M131.012,122.935c0.007,0.125,11.813,5.24,11.813,5.24s0.323-8.023-5.006-9.012
	C134.78,118.598,131.012,122.935,131.012,122.935"/>
<path fill="#C30D23" d="M143.113,124.818c0,0,2.353,6.853-2.255,9.725c-5.013,3.124-15.693,0.598-15.693,0.598
	s6.661,9.439,11.899,7.123C151.974,135.669,143.113,124.818,143.113,124.818"/>
<path fill="#C30D23" d="M135.948,134.875l-6.665-11.962c0,0-6.121,8.547-4.102,10.702
	C127.199,135.771,135.948,134.875,135.948,134.875"/>
<path fill="#C30D23" d="M145.216,125.413c0,0-2.771-9.619-8.717-13.117c-0.258-0.114-14.095,2.536-16.896,9.96
	c-2.801,7.423,3.946,14.657,3.946,14.657s-1.376-7.108,4.144-13.773C138.415,110.195,145.216,125.413,145.216,125.413"/>
<path fill="#C30D23" d="M137.617,111.992c-0.007-0.125,4.543,3.06,7.621,9.835c3.079,6.775,0.476,14.378,0.476,14.378
	s9.105-7.829,6.497-13.19C148.32,115.02,137.617,111.992,137.617,111.992"/>
<path fill="#C30D23" d="M135.174,143.545c7.248,0.357,16.967-13.862,16.967-13.862s-2.599,11.816-8.713,16.94
	c-6.115,5.124-10.115,2.919-12.975,0.913c-2.859-2.006-5.727-10.992-5.727-10.992S128.963,143.239,135.174,143.545"/>
<path fill="#C30D23" d="M118.102,123.771c-0.89,9.254,2.172,10.275,5.331,14.72c3.161,4.444,2.861,8.86,9.593,11.631
	c0.259,0.107-9.499-1.449-14.044-7.276C114.437,137.019,118.144,123.329,118.102,123.771"/>
<path fill="#C30D23" d="M167.673,167.537l-12.493,3.08c0,0,0.055,2.467,1.443,4.222c1.389,1.753,2.703,2.197,2.703,2.197
	L167.673,167.537z"/>
<path fill="#C30D23" d="M167.832,166.618c-0.029,0.122-12.586,2.929-12.586,2.929s1.189-7.941,6.609-7.912
	C164.945,161.651,167.832,166.618,167.832,166.618"/>
<path fill="#C30D23" d="M155.593,166.195c0,0-3.6,6.289,0.389,9.975c4.336,4.01,15.301,3.535,15.301,3.535
	s-8.314,8.021-13.024,4.761C144.852,175.188,155.593,166.195,155.593,166.195"/>
<path fill="#C30D23" d="M160.74,177.418l8.793-10.497c0,0,4.407,9.544,2.02,11.282C169.166,179.942,160.74,177.418,160.74,177.418"
	/>
<path fill="#C30D23" d="M153.416,166.383c0,0,4.527-8.927,11.025-11.247c0.273-0.063,13.366,5.14,14.725,12.957
	c1.356,7.817-6.63,13.655-6.63,13.655s2.688-6.723-1.482-14.306C162.954,152.713,153.416,166.383,153.416,166.383"/>
<path fill="#C30D23" d="M163.4,154.629c0.028-0.122-5.037,2.152-9.334,8.229c-4.297,6.075-3.167,14.032-3.167,14.032
	s-7.474-9.4-3.904-14.176C152.318,155.592,163.4,154.629,163.4,154.629"/>
<path fill="#C30D23" d="M159.873,186.08c-7.187-1.01-14.063-16.802-14.063-16.802s0.334,12.093,5.377,18.275
	c5.044,6.181,9.388,4.767,12.572,3.333c3.186-1.434,7.689-9.721,7.689-9.721S166.031,186.946,159.873,186.08"/>
<path fill="#C30D23" d="M180.356,169.864c-0.865,9.256-4.063,9.685-8.002,13.456c-3.939,3.772-4.475,8.165-11.606,9.622
	c-0.275,0.057,9.604,0.362,15.161-4.507C181.467,183.565,180.397,169.422,180.356,169.864"/>
<path fill="#C30D23" d="M78.801,122.747l9.127,2.25c0,0-0.04,1.803-1.055,3.084c-1.014,1.281-1.974,1.605-1.974,1.605
	L78.801,122.747z"/>
<path fill="#C30D23" d="M78.685,122.076c0.021,0.089,9.195,2.139,9.195,2.139s-0.869-5.801-4.829-5.78
	C80.793,118.447,78.685,122.076,78.685,122.076"/>
<path fill="#C30D23" d="M87.626,121.766c0,0,2.629,4.594-0.284,7.288c-3.168,2.929-11.178,2.583-11.178,2.583
	s6.075,5.859,9.515,3.478C95.474,128.337,87.626,121.766,87.626,121.766"/>
<path fill="#C30D23" d="M83.865,129.966l-6.424-7.669c0,0-3.219,6.973-1.475,8.243C77.71,131.811,83.865,129.966,83.865,129.966"/>
<path fill="#C30D23" d="M89.217,121.905c0,0-3.308-6.522-8.055-8.217c-0.2-0.046-9.765,3.755-10.757,9.466
	c-0.992,5.711,4.843,9.977,4.843,9.977s-1.963-4.913,1.083-10.453C82.248,111.917,89.217,121.905,89.217,121.905"/>
<path fill="#C30D23" d="M81.922,113.317c-0.021-0.089,3.68,1.573,6.819,6.011c3.139,4.439,2.313,10.252,2.313,10.252
	s5.46-6.867,2.853-10.356C90.019,114.021,81.922,113.317,81.922,113.317"/>
<path fill="#C30D23" d="M84.499,136.294c5.25-0.738,10.272-12.275,10.272-12.275s-0.243,8.835-3.928,13.351
	s-6.858,3.483-9.185,2.435c-2.327-1.047-5.617-7.101-5.617-7.101S80,136.927,84.499,136.294"/>
<path fill="#C30D23" d="M69.535,124.447c0.632,6.762,2.968,7.075,5.846,9.831c2.878,2.755,3.269,5.965,8.479,7.029
	c0.201,0.041-7.015,0.265-11.076-3.293C68.723,134.458,69.505,124.125,69.535,124.447"/>
<path fill="#C30D23" d="M12.85,187.823l-0.07-9.4c0,0,1.757-0.405,3.249,0.263c1.492,0.667,2.043,1.518,2.043,1.518L12.85,187.823z"
	/>
<path fill="#C30D23" d="M12.228,188.101c0.081-0.043-0.194-9.438-0.194-9.438s-5.408,2.271-4.411,6.104
	C8.191,186.952,12.228,188.101,12.228,188.101"/>
<path fill="#C30D23" d="M9.724,179.511c0,0,3.804-3.681,7.133-1.521c3.62,2.348,5.259,10.197,5.259,10.197s4.18-7.332,1.024-10.079
	C14.157,170.287,9.724,179.511,9.724,179.511"/>
<path fill="#C30D23" d="M18.598,181.135l-5.848,8.116c0,0,7.551,1.4,8.352-0.603C21.902,186.645,18.598,181.135,18.598,181.135"/>
<path fill="#C30D23" d="M9.465,177.936c0,0-5.505,4.814-5.977,9.832c0.004,0.205,6.046,8.538,11.826,8.092
	c5.779-0.447,8.474-7.153,8.474-7.153s-4.276,3.114-10.396,1.527C1.505,187.153,9.465,177.936,9.465,177.936"/>
<path fill="#C30D23" d="M2.942,187.123c-0.081,0.043,0.617-3.954,4.145-8.091c3.527-4.136,9.365-4.769,9.365-4.769
	s-8.002-3.599-10.74-0.211C1.628,179.103,2.942,187.123,2.942,187.123"/>
<path fill="#C30D23" d="M24.574,178.96c-2.01-4.905-14.429-6.929-14.429-6.929s8.622-1.943,13.907,0.515
	c5.285,2.457,5.066,5.787,4.625,8.301s-5.497,7.194-5.497,7.194S26.296,183.165,24.574,178.96"/>
<path fill="#C30D23" d="M16.782,196.384c6.398-2.28,6.125-4.621,8.086-8.09s4.975-4.639,4.722-9.949
	c-0.01-0.205,1.986,6.732-0.461,11.545C26.683,194.703,16.476,196.493,16.782,196.384"/>
<path fill="#C30D23" d="M192.088,137.216l-2.715,9c0,0,1.571,0.884,3.19,0.664c1.62-0.22,2.388-0.882,2.388-0.882L192.088,137.216z"
	/>
<path fill="#C30D23" d="M191.569,136.774c0.065,0.064-2.845,9.002-2.845,9.002s-4.549-3.704-2.513-7.101
	C187.372,136.739,191.569,136.774,191.569,136.774"/>
<path fill="#C30D23" d="M186.747,144.31c0,0,2.613,4.603,6.415,3.469c4.135-1.233,7.918-8.303,7.918-8.303s1.946,8.213-1.855,9.96
	C188.402,154.41,186.747,144.31,186.747,144.31"/>
<path fill="#C30D23" d="M195.719,145.251l-3.326-9.435c0,0,7.642,0.783,7.846,2.93C200.442,140.895,195.719,145.251,195.719,145.251
	"/>
<path fill="#C30D23" d="M186.056,145.749c0,0-3.927-6.169-2.966-11.117c0.062-0.196,8.205-6.49,13.626-4.434
	c5.42,2.057,6.116,9.251,6.116,9.251s-3.227-4.192-9.546-4.393C181.014,134.664,186.056,145.749,186.056,145.749"/>
<path fill="#C30D23" d="M182.383,135.097c-0.065-0.064-0.521,3.968,1.698,8.93c2.22,4.963,7.643,7.215,7.643,7.215
	s-8.69,1.199-10.364-2.823C178.863,142.422,182.383,135.097,182.383,135.097"/>
<path fill="#C30D23" d="M200.841,149.021c-3.31,4.141-15.797,2.585-15.797,2.585s7.727,4.292,13.49,3.423
	c5.763-0.87,6.49-4.127,6.774-6.664c0.285-2.535-3.248-8.451-3.248-8.451S203.677,145.472,200.841,149.021"/>
<path fill="#C30D23" d="M198.271,130.109c5.497,3.989,4.575,6.159,5.48,10.04c0.905,3.88,3.467,5.851,1.729,10.877
	c-0.066,0.194,3.802-5.902,2.81-11.209C207.298,134.511,198.009,129.919,198.271,130.109"/>
<path fill="#C30D23" d="M227.421,152.221l2.856,8.956c0,0-1.559,0.909-3.181,0.714c-1.623-0.195-2.401-0.844-2.401-0.844
	L227.421,152.221z"/>
<path fill="#C30D23" d="M227.933,151.771c-0.065,0.065,2.985,8.956,2.985,8.956s4.489-3.774,2.401-7.139
	C232.129,151.669,227.933,151.771,227.933,151.771"/>
<path fill="#C30D23" d="M232.873,159.23c0,0-2.541,4.644-6.36,3.57c-4.154-1.169-8.048-8.179-8.048-8.179s-1.817,8.242,2.012,9.931
	C231.376,169.355,232.873,159.23,232.873,159.23"/>
<path fill="#C30D23" d="M223.916,160.313l3.178-9.486c0,0-7.628,0.903-7.798,3.053C219.126,156.031,223.916,160.313,223.916,160.313
	"/>
<path fill="#C30D23" d="M233.587,160.658c0,0,3.828-6.23,2.791-11.163c-0.065-0.194-8.308-6.36-13.694-4.218
	s-5.971,9.345-5.971,9.345s3.159-4.242,9.476-4.542C238.453,149.495,233.587,160.658,233.587,160.658"/>
<path fill="#C30D23" d="M237.091,149.95c0.065-0.065,0.584,3.959-1.557,8.956c-2.142,4.997-7.529,7.334-7.529,7.334
	s8.709,1.062,10.319-2.986C240.725,157.218,237.091,149.95,237.091,149.95"/>
<path fill="#C30D23" d="M218.854,164.163c3.375,4.089,15.835,2.336,15.835,2.336s-7.658,4.414-13.434,3.635
	c-5.776-0.779-6.556-4.023-6.879-6.555c-0.324-2.531,3.114-8.502,3.114-8.502S215.963,160.659,218.854,164.163"/>
<path fill="#C30D23" d="M221.126,145.212c-5.433,4.075-4.478,6.23-5.322,10.124c-0.843,3.895-3.374,5.906-1.557,10.903
	c0.07,0.193-3.895-5.841-2.986-11.162C212.17,149.755,221.386,145.017,221.126,145.212"/>
</svg>
