<svg version="1.1" xmlns="http://www.w3.org/2000/svg" xmlns:xlink="http://www.w3.org/1999/xlink" x="0px" y="0px" width="100%" viewBox="0 0 50 50">
	<path fill="#FFFFFF" d="M34.574,10H15.468c-3-0.004-5.463,2.425-5.468,5.426v19.106c-0.004,3.001,2.426,5.465,5.427,5.469h10.234
		V28.686H21.86v-4.412h3.801v-3.25c0-1.849,0.518-3.284,1.553-4.302c1.031-1.018,2.409-1.528,4.127-1.528
		c1.461,0,2.594,0.059,3.398,0.18v3.936h-2.34c-0.855,0-1.43,0.18-1.729,0.537c-0.298,0.357-0.448,0.893-0.448,1.609v2.818h4.369
		l-0.583,4.412h-3.786V40h4.31c3.001,0.004,5.463-2.426,5.468-5.427V15.467C40.004,12.466,37.575,10.003,34.574,10z"/>
</svg>
