<svg version="1.1" xmlns="http://www.w3.org/2000/svg" xmlns:xlink="http://www.w3.org/1999/xlink" x="0px" y="0px" width="100%" viewBox="0 0 50 50">

	<g>
		<path fill="#FFFFFF" d="M34.574,10H15.468c-3-0.004-5.463,2.425-5.468,5.426v19.106c-0.004,3.001,2.426,5.465,5.427,5.469h19.105
			c3.001,0.004,5.463-2.426,5.468-5.427V15.467C40.004,12.466,37.575,10.003,34.574,10z M33.533,29.134
			c-2.292,2.638-7.416,5.851-8.582,6.342c-1.165,0.491-0.993-0.313-0.946-0.589c0.027-0.164,0.156-0.936,0.156-0.936
			c0.037-0.278,0.074-0.711-0.035-0.987c-0.123-0.304-0.607-0.462-0.963-0.539c-5.249-0.693-9.135-4.363-9.135-8.745
			c0-4.887,4.9-8.864,10.923-8.864c6.023,0,10.923,3.976,10.923,8.864C35.874,25.637,35.116,27.398,33.533,29.134z"/>
		<g id="g7966_1_" transform="matrix(1.6639441,0,0,1.6639441,441.5933,393.76931)">
			<path id="path7968_1_" fill="#FFFFFF" d="M-251.728-223.836h-0.46c-0.07,0-0.128,0.057-0.128,0.128v2.86
				c0,0.07,0.057,0.128,0.128,0.128h0.46c0.07,0,0.128-0.058,0.128-0.128v-2.86C-251.6-223.779-251.657-223.836-251.728-223.836"/>
		</g>
		<g id="g7970_1_" transform="matrix(1.6639441,0,0,1.6639441,483.49956,393.76931)">
			<path id="path7972_1_" fill="#FFFFFF" d="M-273.744-223.836h-0.46c-0.07,0-0.128,0.057-0.128,0.128v1.699l-1.311-1.77
				c-0.002-0.005-0.006-0.009-0.009-0.013l-0.001-0.001c-0.002-0.003-0.005-0.006-0.008-0.008c-0.001-0.001-0.002-0.001-0.002-0.002
				c-0.002-0.002-0.004-0.004-0.006-0.006c-0.001-0.001-0.002-0.002-0.004-0.003c-0.002-0.001-0.005-0.003-0.007-0.004
				c-0.001-0.001-0.002-0.002-0.004-0.002c-0.002-0.001-0.005-0.003-0.007-0.004c-0.001-0.001-0.002-0.001-0.004-0.002
				c-0.002-0.001-0.005-0.002-0.008-0.003c-0.002-0.001-0.003-0.001-0.004-0.002c-0.002-0.001-0.005-0.002-0.008-0.002
				c-0.002-0.001-0.003-0.001-0.004-0.001c-0.002-0.001-0.005-0.001-0.008-0.001c-0.002,0-0.004-0.001-0.005-0.001
				c-0.002-0.001-0.005-0.001-0.007-0.001c-0.002,0-0.004,0-0.006,0c-0.002,0-0.004,0-0.005,0h-0.46
				c-0.071,0-0.128,0.057-0.128,0.128v2.86c0,0.07,0.057,0.128,0.128,0.128h0.46c0.07,0,0.128-0.058,0.128-0.128v-1.699l1.312,1.773
				c0.009,0.013,0.02,0.023,0.032,0.032c0,0,0.001,0.001,0.001,0.001c0.003,0.002,0.005,0.004,0.008,0.005
				c0.001,0.001,0.002,0.002,0.004,0.002c0.002,0.001,0.004,0.002,0.006,0.003c0.002,0.001,0.004,0.002,0.006,0.002
				c0.001,0.001,0.002,0.001,0.004,0.002c0.003,0.001,0.006,0.002,0.009,0.003c0.001,0,0.001,0,0.002,0
				c0.011,0.003,0.022,0.005,0.033,0.005h0.461c0.07,0,0.127-0.058,0.127-0.128v-2.86
				C-273.616-223.779-273.673-223.836-273.744-223.836"/>
		</g>
		<g id="g7974_1_" transform="matrix(1.6639441,0,0,1.6639441,426.91715,362.04388)">
			<path id="path7976_1_" fill="#FFFFFF" d="M-244.018-202.37h-1.251v-2.271c0-0.071-0.058-0.128-0.128-0.128h-0.461
				c-0.07,0-0.127,0.057-0.127,0.128v2.86l0,0c0,0.035,0.013,0.065,0.035,0.088c0.001,0.001,0.001,0.002,0.002,0.002
				c0.001,0.001,0.002,0.001,0.002,0.002c0.023,0.022,0.054,0.036,0.089,0.036l0,0h1.839c0.071,0,0.127-0.058,0.127-0.128v-0.461
				C-243.89-202.313-243.947-202.37-244.018-202.37"/>
		</g>
		<g id="g7978_1_" transform="matrix(1.6639441,0,0,1.6639441,517.12172,384.29914)">
			<path id="path7980_1_" fill="#FFFFFF" d="M-291.407-217.428c0.07,0,0.128-0.057,0.128-0.128v-0.46
				c0-0.071-0.057-0.128-0.128-0.128h-1.839l0,0c-0.035,0-0.066,0.014-0.089,0.036c-0.001,0.001-0.001,0.001-0.002,0.001
				c-0.001,0.001-0.001,0.001-0.002,0.002c-0.022,0.023-0.036,0.054-0.036,0.088l0,0v2.86l0,0c0,0.035,0.014,0.065,0.036,0.088
				c0.001,0.001,0.001,0.002,0.002,0.002c0.001,0.001,0.001,0.001,0.002,0.002c0.023,0.022,0.054,0.036,0.089,0.036l0,0h1.839
				c0.07,0,0.128-0.058,0.128-0.128v-0.461c0-0.07-0.057-0.128-0.128-0.128h-1.251v-0.483h1.251c0.07,0,0.128-0.057,0.128-0.128
				v-0.46c0-0.071-0.057-0.128-0.128-0.128h-1.251v-0.483H-291.407L-291.407-217.428z"/>
		</g>
	</g>

</svg>
