<svg version="1.1" xmlns="http://www.w3.org/2000/svg" xmlns:xlink="http://www.w3.org/1999/xlink" x="0px" y="0px" width="100%" viewBox="-15 -15 80 80">

	<g>
		<path fill="#FFFFFF" d="M20,16.398c3.332,0,6.666,0,10,0c0.432,0,0.549-0.172,0.488-0.547c-0.145-0.832-0.23-1.691-0.457-2.5
			c-0.117-0.375-0.174-0.748-0.318-1.121c-0.4-1.32-0.977-2.586-2.039-3.504c-1.234-1.094-2.76-1.383-4.396-0.602
			c-1.727,0.803-2.475,2.379-3.047,4.078c-0.434,1.178-0.488,2.414-0.719,3.625C19.453,16.227,19.566,16.398,20,16.398z"/>
		<path fill="#FFFFFF" d="M35.883,0H14.117C6.318,0,0,6.32,0,14.113v21.768C0,43.68,6.318,50,14.117,50h21.766
			C43.682,50,50,43.68,50,35.881V14.113C50,6.32,43.682,0,35.883,0z M41.822,21.754c-0.086,1.086-0.17,2.18-0.23,3.271
			c-0.086,1.498-0.229,2.988-0.314,4.482c-0.086,1.236-0.201,2.443-0.23,3.68c0,0.057,0,0.145-0.061,0.201
			c-0.172,2.266-0.258,4.512-0.545,6.748c-0.199,1.586-0.918,2.902-2.471,3.656c-0.805,0.342-1.664,0.371-2.527,0.371
			c-7.154,0-14.311,0-21.436,0c-0.719,0-1.381-0.061-2.041-0.348C10.301,43.102,9.666,41.635,9.494,40
			c-0.143-1.465-0.199-2.932-0.313-4.398c-0.262-3.277-0.52-6.578-0.721-9.855c-0.115-1.783-0.314-3.533-0.377-5.34
			c-0.023-0.84-0.17-1.645-0.17-2.477c0-0.285,0.061-0.516,0.23-0.746c0.346-0.547,0.861-0.746,1.467-0.746c2.441,0,4.854,0,7.299,0
			c0.572,0,0.572,0,0.631-0.574c0.117-1.209,0.316-2.359,0.604-3.508c0.027-0.629,0.346-1.207,0.574-1.781
			c0.52-1.207,1.18-2.357,2.186-3.219c1.695-1.461,3.621-1.84,5.775-1.262c0.748,0.199,1.381,0.602,1.982,1.063
			c0.518,0.371,0.891,0.889,1.291,1.406c0.059,0.117,0.115,0.203,0.205,0.316c0.314,0.4,0.57,0.832,0.803,1.291
			c0.26,0.807,0.662,1.525,0.861,2.357c0.258,1.066,0.49,2.127,0.549,3.223c0.025,0.457,0.17,0.66,0.688,0.66
			c2.385-0.031,4.795,0,7.182-0.031c0.777,0,1.381,0.258,1.754,0.977c0.115,0.172,0.086,0.375,0.086,0.574
			C42.08,19.223,41.908,20.484,41.822,21.754z"/>
		<path fill="#FFFFFF" d="M30.471,31.922c-0.145-0.172-0.26-0.346-0.402-0.518c-0.143-0.287-0.373-0.428-0.604-0.604
			c-0.402-0.318-0.805-0.633-1.295-0.803c-0.83-0.432-1.725-0.689-2.613-1.008c-0.633-0.289-1.352-0.459-1.98-0.803
			c-0.23-0.234-0.576-0.234-0.805-0.488c-0.146-0.088-0.291-0.203-0.434-0.32c-0.633-0.572-1.094-1.262-1.035-2.15
			c0.113-1.322,1.408-2.678,2.703-2.902c1.291-0.232,2.527-0.061,3.732,0.457c0.488,0.201,0.979,0.432,1.467,0.635
			c0.287,0.113,0.545-0.059,0.689-0.258c0.145-0.205,0.115-0.43-0.115-0.664c-0.145-0.143-0.287-0.289-0.461-0.373
			c-2.156-1.152-4.395-1.525-6.693-0.574c-1.006,0.402-1.779,1.15-2.184,2.213c-0.059,0.201-0.199,0.402-0.26,0.633
			c-0.314,1.18-0.025,2.213,0.605,3.217c0.344,0.604,0.947,0.951,1.492,1.352c0.717,0.459,1.494,0.748,2.299,1.006
			c1.094,0.344,2.215,0.688,3.191,1.293c1.438,0.863,2.299,1.953,1.926,3.793c-0.174,0.375-0.316,0.773-0.633,1.094
			c-0.604,0.629-1.352,0.977-2.156,1.205c-1.033,0.287-2.07,0.23-3.102,0c-0.26-0.172-0.576-0.027-0.809-0.201
			c-0.891-0.314-1.752-0.719-2.496-1.293c-0.375-0.145-0.691-0.172-0.922,0.201c-0.258,0.398,0.084,0.602,0.287,0.832
			c0.316,0.348,0.773,0.49,1.119,0.779c0.318,0.258,0.721,0.34,1.094,0.516c0.314,0.201,0.689,0.229,1.035,0.313
			c1.15,0.32,2.326,0.434,3.506,0.23c0.689-0.027,1.32-0.258,1.953-0.543c0.146-0.086,0.314-0.176,0.459-0.258
			c0.979-0.605,1.582-1.438,1.928-2.533c0.172-0.715,0.232-1.436,0.084-2.152C30.9,32.783,30.787,32.324,30.471,31.922z"/>
	</g>

</svg>
