
<svg version="1.1" xmlns="http://www.w3.org/2000/svg" xmlns:xlink="http://www.w3.org/1999/xlink" x="0px" y="0px" width="100%" viewBox="0 0 50 50">


	<g>
		<path fill="#FFFFFF" d="M25.629,18.16h5.74c0.502,2.032,0.775,4.114,0.813,6.207h-6.553V18.16z"/>
		<path fill="#FFFFFF" d="M17.799,25.63h6.564v6.21h-5.64c-0.056,0.012-0.109-0.023-0.121-0.079
			c-0.001-0.004-0.001-0.009-0.002-0.014c-0.245-0.978-0.429-1.97-0.552-2.97c-0.082-0.663-0.129-1.326-0.184-1.992
			c-0.029-0.36-0.035-0.723-0.054-1.083C17.799,25.681,17.799,25.66,17.799,25.63z"/>
		<path fill="#FFFFFF" d="M17.83,24.367c0-0.21,0-0.414,0-0.618c0.063-0.81,0.119-1.623,0.207-2.43
			c0.119-1.041,0.307-2.072,0.563-3.087c0.001-0.043,0.036-0.077,0.08-0.076c0.003,0,0.007,0,0.01,0.001h5.632h0.041v6.21H17.83
			L17.83,24.367z"/>
		<path fill="#FFFFFF" d="M32.164,25.633c0,0.207,0,0.408,0,0.6c-0.063,0.813-0.123,1.629-0.207,2.442
			c-0.121,1.04-0.311,2.07-0.567,3.084c-0.001,0.043-0.037,0.077-0.08,0.076c-0.003,0-0.007,0-0.011-0.001h-5.631h-0.041v-6.201
			H32.164L32.164,25.633z"/>
		<path fill="#FFFFFF" d="M17.311,18.163c-0.465,2.036-0.715,4.116-0.747,6.204H10c0-0.174,0-0.342,0.026-0.51
			c0.149-1.96,0.683-3.872,1.572-5.625c0.021-0.051,0.071-0.082,0.126-0.075h5.586V18.163z"/>
		<path fill="#FFFFFF" d="M10,25.63h6.563c0.032,2.091,0.284,4.172,0.75,6.21h-5.571c-0.066,0.007-0.13-0.033-0.152-0.096
			C10.996,30.559,10.563,29.3,10.299,28c-0.158-0.744-0.258-1.5-0.299-2.259C10,25.705,10,25.669,10,25.63z"/>
		<path fill="#FFFFFF" d="M40,24.37h-6.57c-0.031-2.091-0.283-4.172-0.75-6.21h5.57c0.068-0.007,0.132,0.034,0.153,0.099
			c0.93,1.84,1.468,3.852,1.581,5.91C40,24.229,40,24.295,40,24.37z"/>
		<path fill="#FFFFFF" d="M40,25.63c-0.024,0.321-0.043,0.633-0.076,0.942c-0.066,0.64-0.174,1.275-0.323,1.902
			c-0.27,1.143-0.673,2.251-1.2,3.3c-0.016,0.046-0.06,0.076-0.107,0.072H32.68c0.468-2.04,0.719-4.124,0.75-6.216H40L40,25.63z"/>
		<path fill="#FFFFFF" d="M24.363,39.949c-0.703-0.15-1.356-0.474-1.902-0.942c-0.596-0.501-1.117-1.086-1.545-1.737
			c-0.811-1.239-1.443-2.586-1.881-4.002L19,33.121h5.363V39.949z"/>
		<path fill="#FFFFFF" d="M25.623,39.949v-6.828H31l-0.066,0.207c-0.32,1.004-0.731,1.976-1.23,2.904
			c-0.518,1.007-1.213,1.913-2.052,2.673C27.08,39.426,26.38,39.786,25.623,39.949z"/>
		<path fill="#FFFFFF" d="M24.363,10.051v6.831H19c0-0.03,0-0.054,0.021-0.078c0.386-1.252,0.919-2.455,1.587-3.582
			c0.502-0.873,1.156-1.649,1.932-2.292C23.067,10.494,23.693,10.192,24.363,10.051z"/>
		<path fill="#FFFFFF" d="M31,16.882h-5.371v-6.828c0.371,0.071,0.729,0.199,1.06,0.378c0.704,0.391,1.325,0.918,1.824,1.551
			c0.792,0.984,1.428,2.084,1.887,3.261c0.21,0.51,0.384,1.035,0.573,1.554C31,16.819,31,16.843,31,16.882z"/>
		<path fill="#FFFFFF" d="M21.084,10.528c-0.129,0.138-0.258,0.273-0.383,0.414c-0.627,0.712-1.166,1.497-1.605,2.337
			c-0.588,1.113-1.061,2.283-1.41,3.492c-0.011,0.076-0.08,0.128-0.156,0.118c0,0-0.002,0-0.003,0h-5.157
			c2.02-3.123,5.115-5.394,8.7-6.381L21.084,10.528z"/>
		<path fill="#FFFFFF" d="M12.367,33.1h5.166c0.071-0.012,0.139,0.036,0.151,0.108c0.001,0.002,0.001,0.004,0.001,0.006
			c0.353,1.221,0.832,2.403,1.428,3.525c0.508,0.975,1.152,1.872,1.917,2.661l0.045,0.051c0.002,0.013,0.002,0.026,0,0.039
			C17.486,38.501,14.387,36.227,12.367,33.1z"/>
		<path fill="#FFFFFF" d="M37.614,16.9h-5.147c-0.076,0.012-0.146-0.039-0.158-0.114c-0.001-0.001-0.001-0.002-0.001-0.003
			c-0.35-1.209-0.821-2.379-1.41-3.492c-0.511-0.987-1.165-1.894-1.938-2.691c-0.025-0.021-0.046-0.048-0.06-0.078
			c1.185,0.308,2.325,0.767,3.394,1.365c1.072,0.6,2.068,1.328,2.963,2.169C36.154,14.905,36.947,15.86,37.614,16.9z"/>
		<path fill="#FFFFFF" d="M28.899,39.472c0.129-0.138,0.258-0.273,0.384-0.411c0.62-0.704,1.154-1.479,1.59-2.31
			c0.595-1.12,1.072-2.298,1.426-3.516c0-0.078,0.064-0.14,0.143-0.139c0.01,0,0.021,0.001,0.031,0.004H37.6
			c-0.994,1.558-2.266,2.918-3.753,4.014C32.363,38.208,30.684,39.008,28.899,39.472z"/>
	</g>

</svg>
