<svg version="1.1" xmlns="http://www.w3.org/2000/svg" xmlns:xlink="http://www.w3.org/1999/xlink" x="0px" y="0px"
	 width="100%" viewBox="0 0 50 50">
	<g>
		<polygon fill="#FFF" points="11.39,28.735 13.651,28.735 13.651,41.228 15.899,41.228 15.899,28.735 18.123,28.735 
			18.123,26.699 11.39,26.699 		"/>
		<path fill="#FFF" d="M21.871,35.181c0,1.087,0,2.161,0,3.248c0,0.018,0,0.035,0,0.051c-0.021,0.601-0.524,1.069-1.124,1.049
			c-0.712,0.037-0.55-0.612-0.55-1.049c0-1.999,0-3.998,0-5.997v-1.948H18.21v6.021c0,1.087,0,2.173,0,3.248
			c0.075,1.448,1.074,2.023,2.324,1.374c0.435-0.265,0.853-0.557,1.249-0.875c0.05,0.35,0.138,0.638,0.138,0.925h1.874l0.025-10.693
			h-1.949V35.181z"/>
		<path fill="#FFF" d="M22.77,17.492c0.013,0.55,0.2,0.987,0.837,1.037c0.637,0.05,0.912-0.399,0.912-0.949
			c0-1.824,0-3.66,0-5.484c-0.012-0.55-0.275-0.975-0.912-0.95c-0.637,0.025-0.837,0.475-0.837,1.012c-0.025,0.862,0,1.674,0,2.586
			C22.77,15.656,22.77,16.58,22.77,17.492z"/>
		<path fill="#FFF" d="M30.44,30.559c-0.815-0.365-1.773-0.146-2.349,0.537c-0.025,0-0.1,0-0.237,0v-4.396h-1.986v14.628
			c0.737-0.3,1.624,0.475,2.137-0.637c0.628,0.701,1.637,0.918,2.498,0.537c0.986-0.462,0.986-1.462,1.037-2.424
			c0-1.999,0-3.997,0-5.983C31.65,31.916,31.221,31.03,30.44,30.559z M29.453,38.566c-0.012,0.513-0.125,1.124-0.774,1.087
			s-0.887-0.438-0.887-1.111c0-0.899,0-1.737,0-2.699s0-1.911,0-2.873c-0.005-0.027-0.007-0.056-0.008-0.084
			c-0.017-0.399,0.295-0.737,0.695-0.753c0.06-0.015,0.121-0.021,0.184-0.021c0.4,0.005,0.72,0.334,0.716,0.733
			c0.074,0.888,0.074,1.675,0.074,2.687S29.453,37.555,29.453,38.566z"/>
		<path fill="#FFF" d="M36.824,37.479c-0.001,0.483-0.055,0.965-0.163,1.437c-0.074,0.275-0.399,0.638-0.687,0.638
			s-0.837-0.3-0.837-0.525c-0.05-0.989-0.05-1.982,0-2.973h3.66c0-1.212,0.112-2.323,0-3.41c0-0.052-0.002-0.104-0.005-0.155
			c-0.083-1.377-1.267-2.426-2.644-2.344c-0.045-0.005-0.092-0.009-0.138-0.012c-1.486-0.101-2.773,1.023-2.873,2.511
			c-0.138,2.212-0.138,4.433,0,6.646c0.055,1.065,0.828,1.957,1.874,2.161c1.04,0.368,2.198,0.111,2.985-0.662l0.013,0.05
			c0.753-0.946,1.054-2.174,0.824-3.36H36.824z M35.125,32.845c0.125-0.327,0.407-0.572,0.749-0.649
			c0.366,0.078,0.669,0.33,0.813,0.675c0.07,0.522,0.07,1.052,0,1.574h-1.562C35.063,33.913,35.063,33.376,35.125,32.845z"/>
		<path fill="#FFF" d="M38,0H12C5.373,0,0,5.373,0,12v26c0,6.627,5.373,12,12,12h26c6.627,0,12-5.373,12-12V12
			C50,5.373,44.627,0,38,0z M28.454,9.335c0.018-0.093,0.051-0.182,0.1-0.263h1.937v1.961c0,2.086,0,4.172,0,6.246
			c0.013,0.462-0.175,1.087,0.563,1.174c0.574,0.112,1.249-0.612,1.249-1.249c0-2.161,0-4.335,0-6.496V9.085h2.036v11.318h-1.986
			c-0.037-0.337-0.1-0.662-0.1-1.037c-0.425,0.312-0.813,0.662-1.249,0.912c-1.362,0.75-2.486,0.188-2.549-1.361
			C28.454,15.718,28.454,12.533,28.454,9.335z M23.345,8.998c0.082-0.014,0.164-0.024,0.247-0.03
			c1.513-0.117,2.834,1.015,2.952,2.529c0.144,2.238,0.144,4.482,0,6.721c-0.007,0.065-0.016,0.129-0.027,0.194
			c-0.264,1.488-1.683,2.48-3.171,2.217c-0.103,0.004-0.207,0.003-0.31-0.004c-1.438-0.105-2.519-1.356-2.414-2.794
			c0-1,0-1.999,0-2.998c0-1-0.025-1.999-0.013-2.986c0-0.005,0-0.009,0-0.014C20.582,10.294,21.806,9.025,23.345,8.998z M15.2,5
			c0.512,1.949,1.024,3.885,1.5,5.821h0.187C17.374,8.885,17.848,6.937,18.323,5h2.286c-0.512,1.787-0.912,3.598-1.537,5.334
			c-0.914,2.505-1.296,5.172-1.124,7.833c0,0.712,0,1.437,0,2.211h-2.311c0-0.737,0-1.449,0-2.149
			c0.198-2.686-0.186-5.383-1.125-7.907C13.888,8.585,13.463,6.774,12.951,5H15.2z M40.634,41.603
			c-0.378,1.745-1.898,3.009-3.685,3.061c-1.375,0.162-2.773,0.225-4.16,0.337h-15.79c-1.299-0.1-2.661-0.15-3.91-0.313
			c-2.124-0.021-3.894-1.634-4.11-3.747c-0.255-1.082-0.394-2.188-0.413-3.298c0.013-3.049,0.113-6.196,0.212-9.295
			c0.05-0.523,0.163-1.04,0.337-1.536c0.394-1.776,1.931-3.067,3.748-3.148c1.961-0.175,3.935-0.288,5.909-0.288
			c5.547,0,11.105,0.063,16.665,0.125c0.597,0.036,1.188,0.116,1.773,0.237c1.668,0.147,3.05,1.354,3.423,2.985
			C41.7,31.626,41.7,36.7,40.634,41.603z"/>
	</g>
</svg>
