<?xml version="1.0" encoding="utf-8"?>
<!-- Generator: Adobe Illustrator 24.1.2, SVG Export Plug-In . SVG Version: 6.00 Build 0)  -->
<svg version="1.1" id="圖層_1" xmlns="http://www.w3.org/2000/svg" xmlns:xlink="http://www.w3.org/1999/xlink" x="0px" y="0px"
	 viewBox="0 0 58 90" style="enable-background:new 0 0 58 90;" xml:space="preserve">
<style type="text/css">
	.st0{fill:#FFFFFF;}
</style>
<g>
	<path class="st0" d="M21.1,64.9c0-6,0-12,0-17.9c0-1.2,0.1-1.1-1.1-1.1c-2.1,0-4.1,0-6.2,0c-0.5,0-0.7-0.2-0.7-0.7
		c0-3.9,0-7.8,0-11.7c0-0.5,0.2-0.7,0.7-0.7c2.1,0,4.3,0,6.4,0c0.8,0,0.8,0,0.8-0.8c0-3.2-0.1-6.4,0.1-9.6c0.1-1.9,0.4-3.8,1.1-5.6
		c1.7-4.8,5.2-7.4,10-8.4c2-0.4,4-0.6,6-0.6c3.2,0,6.4,0,9.6,0c0.8,0,0.8,0,0.8,0.8c0,3.8,0,7.7,0,11.5c0,0.8,0,0.8-0.8,0.8
		c-2.2,0-4.3,0-6.5,0c-0.6,0-1.1,0.1-1.7,0.2c-1.6,0.4-2.5,1.2-2.6,2.9c-0.3,2.8-0.1,5.6-0.1,8.3c0,0.3,0.2,0.5,0.5,0.5
		c0.2,0,0.4,0,0.6,0c3.4,0,6.7,0,10.1,0c0.7,0,0.8,0,0.7,0.7c-0.4,3.9-0.8,7.8-1.2,11.7c-0.1,0.6-0.3,0.7-0.9,0.7
		c-2.8,0-5.7,0-8.5,0c-1.3,0-1.2-0.2-1.2,1.2c0,11.9,0,23.8,0,35.7c0,1.3,0.2,1.2-1.2,1.2c-4.6,0-9.2,0-13.8,0c-0.9,0-0.9,0-0.9-0.9
		C21.1,77.1,21.1,71,21.1,64.9z"/>
</g>
</svg>
